<svg width="960" height="216" viewBox="0 0 960 216" fill="none" xmlns="http://www.w3.org/2000/svg">
<path fill-rule="evenodd" clip-rule="evenodd" d="M108 0C48.4929 0 0 48.4929 0 108C0 167.507 48.4929 216 108 216C167.507 216 216 167.507 216 108C216 48.4929 167.66 0 108 0ZM108 191.83C61.8017 191.83 24.3229 154.351 24.3229 108.153C24.3229 61.9547 61.8017 24.4759 108 24.4759C154.198 24.4759 191.677 61.9547 191.677 108.153C191.677 154.351 154.198 191.83 108 191.83ZM102.952 95.302L85.6657 78.1688L72.9688 90.8657L60.7309 78.4748L43.4447 95.6079L55.8357 107.999L42.8328 121.002L60.1189 138.288L72.9688 125.285L86.2776 138.594L103.564 121.308L90.2549 107.999L102.952 95.302ZM172.708 94.8452L160.011 107.542L173.32 120.851L156.034 137.984L142.725 124.675L129.722 137.678L112.589 120.392L125.592 107.542L113.201 95.1512L130.334 77.865L142.725 90.256L155.422 77.5591L172.708 94.8452Z" fill="#EC1C24"/>
<path fill-rule="evenodd" clip-rule="evenodd" d="M272.552 73.6004C272.552 64.7776 275.124 57.9766 280.269 53.1879C285.414 48.3992 292.879 46 302.663 46C304.702 46 306.236 46.0484 307.255 46.1258V64.8163L304.828 64.6905C301.256 64.6905 298.654 65.4548 297.043 66.9833C295.422 68.5021 294.529 70.969 294.364 74.355H307.265V92.6682H294.374V145.325H272.552V92.6779H264V74.3647H272.552V73.6004ZM951.827 80.9624C957.272 86.2542 960 94.1193 960 104.529V145.315H939.275V107.702C939.275 102.052 938.033 97.8341 935.557 95.0577C933.072 92.2812 929.49 90.8881 924.792 90.8881C919.56 90.8881 915.406 92.5037 912.299 95.7252C909.203 98.9467 907.65 103.735 907.65 110.091V145.315H886.925V47.0544H907.65V81.4848C910.397 78.747 913.716 76.6477 917.619 75.1966C921.511 73.7358 925.763 73.0102 930.374 73.0102C939.227 73.0102 946.381 75.6609 951.827 80.9624ZM790.524 80.9624C795.969 86.2542 798.697 94.1193 798.697 104.529V145.315H777.972V107.702C777.972 102.052 776.73 97.8341 774.254 95.0577C771.769 92.2812 768.188 90.8881 763.489 90.8881C758.257 90.8881 754.103 92.5037 750.996 95.7252C747.9 98.9467 746.347 103.735 746.347 110.091V145.315H725.622V74.0744H745.415V82.4135C748.162 79.4145 751.569 77.0927 755.646 75.4578C759.723 73.8228 764.188 73.0102 769.071 73.0102C777.914 73.0102 785.078 75.6609 790.524 80.9624ZM389.066 74.0841V145.315H369.274V137.102C364.139 143.283 356.693 146.37 346.947 146.37C340.22 146.37 334.124 144.87 328.678 141.871C323.233 138.872 318.962 134.586 315.855 129.024C312.749 123.461 311.206 117.018 311.206 109.695C311.206 102.371 312.749 95.9284 315.855 90.3657C318.952 84.8031 323.233 80.5271 328.678 77.5184C334.124 74.5194 340.22 73.0199 346.947 73.0199C356.072 73.0199 363.197 75.8932 368.342 81.63V74.0841H389.066ZM363.556 124.061C367.012 120.481 368.74 115.702 368.74 109.695C368.74 103.697 367.012 98.908 363.556 95.3286C360.1 91.7491 355.761 89.9691 350.539 89.9691C345.229 89.9691 340.842 91.7588 337.386 95.3286C333.93 98.908 332.202 103.697 332.202 109.695C332.202 115.702 333.93 120.491 337.386 124.061C340.842 127.64 345.219 129.42 350.539 129.42C355.752 129.42 360.1 127.631 363.556 124.061ZM416.237 141.668C410.17 138.533 405.433 134.19 402.016 128.627C398.609 123.064 396.9 116.757 396.9 109.695C396.9 102.633 398.609 96.325 402.016 90.7624C405.423 85.1997 410.16 80.856 416.237 77.7216C422.304 74.5872 429.147 73.0199 436.767 73.0199C444.29 73.0199 450.872 74.5872 456.502 77.7216C462.122 80.856 466.219 85.3352 468.791 91.159L452.716 99.769C448.998 93.239 443.63 89.9691 436.641 89.9691C431.234 89.9691 426.769 91.7395 423.226 95.2609C419.683 98.7919 417.916 103.6 417.916 109.695C417.916 115.789 419.683 120.598 423.226 124.129C426.769 127.66 431.244 129.42 436.641 129.42C443.727 129.42 449.086 126.151 452.716 119.62L468.791 128.356C466.219 134.006 462.122 138.417 456.502 141.6C450.872 144.773 444.3 146.37 436.767 146.37C429.137 146.37 422.294 144.802 416.237 141.668ZM492.292 115.519H546.37C546.632 112.075 546.768 110.217 546.778 109.966C546.778 102.546 545.157 96.0445 541.924 90.4335C538.682 84.8224 534.236 80.5174 528.567 77.5184C522.898 74.5194 516.569 73.0199 509.57 73.0199C502.397 73.0199 495.903 74.5872 490.108 77.7216C484.303 80.856 479.741 85.2288 476.421 90.8301C473.101 96.4314 471.441 102.72 471.441 109.695C471.441 116.757 473.12 123.064 476.489 128.627C479.857 134.19 484.633 138.533 490.836 141.668C497.039 144.802 504.173 146.37 512.23 146.37C525.16 146.37 534.993 142.529 541.72 134.848L530.693 122.929C528.208 125.319 525.529 127.06 522.656 128.163C519.773 129.266 516.472 129.817 512.754 129.817C507.348 129.817 502.834 128.54 499.203 125.976C495.563 123.422 493.263 119.93 492.292 115.519ZM492.03 103.465C492.738 98.879 494.689 95.2609 497.873 92.6101C501.067 89.9594 505.008 88.6341 509.706 88.6341C514.308 88.6341 518.21 89.9788 521.394 92.6682C524.578 95.3673 526.529 98.9661 527.237 103.465H492.03ZM615.456 77.5765C620.901 80.6239 625.173 84.9095 628.279 90.4238C631.375 95.9381 632.929 102.362 632.929 109.685C632.929 117.018 631.375 123.432 628.279 128.956C625.182 134.47 620.901 138.756 615.456 141.803C610.01 144.851 603.963 146.37 597.323 146.37C588.198 146.37 581.025 143.506 575.802 137.76V171H555.078V74.0745H574.87V82.2878C580.005 76.106 587.49 73.02 597.323 73.02C603.963 73.0103 610 74.5388 615.456 77.5765ZM606.816 124.061C610.224 120.481 611.932 115.702 611.932 109.695C611.932 103.697 610.224 98.9081 606.816 95.3286C603.409 91.7492 599.041 89.9691 593.731 89.9691C588.421 89.9691 584.053 91.7589 580.646 95.3286C577.239 98.9081 575.53 103.697 575.53 109.695C575.53 115.702 577.239 120.491 580.646 124.061C584.053 127.64 588.421 129.42 593.731 129.42C599.041 129.42 603.409 127.631 606.816 124.061ZM714.769 145.315V74.0745H694.025V109.288C694.025 115.644 692.521 120.433 689.511 123.655C686.492 126.886 682.513 128.492 677.552 128.492C667.894 128.492 663.069 122.755 663.069 111.281V74.0745H642.344V114.329C642.344 124.912 645.092 132.913 650.586 138.292C656.08 143.68 663.525 146.37 672.912 146.37C677.339 146.37 681.464 145.557 685.269 143.922C689.075 142.297 692.355 139.936 695.103 136.841V145.315H714.769ZM812.714 128.627C816.131 134.19 820.868 138.533 826.935 141.668C833.002 144.802 839.845 146.37 847.466 146.37C854.998 146.37 861.57 144.773 867.2 141.6C872.82 138.417 876.917 134.006 879.489 128.356L863.414 119.62C859.784 126.151 854.425 129.42 847.339 129.42C841.942 129.42 837.467 127.66 833.924 124.129C830.381 120.598 828.614 115.789 828.614 109.695C828.614 103.6 830.381 98.7919 833.924 95.2609C837.467 91.7395 841.932 89.9691 847.339 89.9691C854.328 89.9691 859.696 93.239 863.414 99.769L879.489 91.159C876.917 85.3352 872.82 80.856 867.2 77.7216C861.57 74.5872 854.989 73.0199 847.466 73.0199C839.845 73.0199 833.002 74.5872 826.935 77.7216C820.858 80.856 816.121 85.1997 812.714 90.7624C809.307 96.325 807.598 102.633 807.598 109.695C807.598 116.757 809.307 123.064 812.714 128.627Z" fill="#111221"/>
</svg>